<svg width="300" height="300" viewBox="0 0 300 300" fill="none" xmlns="http://www.w3.org/2000/svg">
<path fill-rule="evenodd" clip-rule="evenodd" d="M132.078 0.89594C111.723 3.51114 86.8103 12.3253 70.721 22.6034L66.4262 25.3464H45.7391H25.052V45.8945V66.4436L21.0961 73.0041C-7.44065 120.335 -6.98667 183.654 22.2181 229.244L25.052 233.668V254.325V274.983H45.7391H66.4262L70.721 277.726C116.504 306.973 179.867 307.461 227.316 278.934L233.886 274.983H254.464H275.041V254.325V233.668L277.875 229.244C307.375 183.193 307.375 117.137 277.875 71.0859L275.041 66.6623V46.0044V25.3464H254.264C235.261 25.3464 233.31 25.2226 231.414 23.8935C207.188 6.91818 163.653 -3.16116 132.078 0.89594ZM176.609 28.7025C192.388 32.496 205.167 37.8911 217.844 46.1132L224.316 50.3101H237.179H250.042V63.1554V75.9997L254.245 82.4633C259.879 91.1247 264.202 99.901 267.512 109.396C280.092 145.488 275.175 185.686 254.245 217.866L250.042 224.33V237.174V250.02H237.179H224.316L217.844 254.217C176.512 281.024 123.582 281.024 82.2495 254.217L75.7768 250.02H62.9143H50.0509V237.174V224.33L45.8481 217.866C19.0032 176.592 19.0032 123.737 45.8481 82.4633L50.0509 75.9997V63.1554V50.3101H62.9143H75.7768L82.2495 46.1132C109.773 28.2621 146.55 21.476 176.609 28.7025ZM67.8961 93.5322C75.2098 101.065 73.9359 96.9014 87.1843 156.592C100.497 216.573 100.1 211.468 92.1131 219.992L87.3703 225.056H112.458C126.258 225.056 137.547 224.871 137.547 224.647C137.547 224.421 136.342 221.847 134.869 218.926L132.19 213.615L140.923 189.309C145.726 175.94 149.832 165 150.047 164.996C150.262 164.993 154.365 175.935 159.166 189.311L167.894 213.632L165.22 218.934C163.749 221.851 162.546 224.421 162.546 224.647C162.546 224.871 173.836 225.056 187.635 225.056H212.723L207.98 219.992C199.994 211.468 199.597 216.573 212.909 156.592C226.157 96.9014 224.883 101.065 232.197 93.5322L237.807 87.7556H212.676C198.854 87.7556 187.545 87.8914 187.545 88.0582C187.545 88.225 188.564 90.5945 189.809 93.3236C193.322 101.026 193.414 100.181 185.73 130.922L178.548 159.655L164.567 123.705C156.876 103.933 150.343 87.7556 150.047 87.7556C149.751 87.7556 143.217 103.933 135.526 123.705L121.545 159.655L114.363 130.922C106.679 100.181 106.771 101.026 110.284 93.3236C111.529 90.5945 112.548 88.225 112.548 88.0582C112.548 87.8914 101.24 87.7556 87.4173 87.7556H62.2864L67.8961 93.5322Z" fill="white"/>
</svg>
